<svg width="31" height="28" viewBox="0 0 31 28" fill="none" xmlns="http://www.w3.org/2000/svg">
<path fill-rule="evenodd" clip-rule="evenodd" d="M19 0.0020752V7.00208H23V0.0020752H19ZM20 1.00208H22V6.00208H20V1.00208Z" fill="#565656"/>
<path d="M23 17.0021H8V16.0021H23V17.0021Z" fill="#565656"/>
<path d="M23 20.0021V21.0021H8V20.0021H23Z" fill="#565656"/>
<path fill-rule="evenodd" clip-rule="evenodd" d="M1 4.00208V10.0021H30V4.00208H26.5V3.00208H31V27.0021H0V3.00208H5.5V4.00208H1ZM1 26.0021V11.0021H30V26.0021H1Z" fill="#565656"/>
<path fill-rule="evenodd" clip-rule="evenodd" d="M8 0.0020752V7.00208H12V0.0020752H8ZM11 6.00208H9V1.00208H11V6.00208Z" fill="#565656"/>
<path d="M14.5 4.00208H17V3.00208H14.5V4.00208Z" fill="#565656"/>
</svg>
