<svg width="33" height="25" viewBox="0 0 33 25" fill="none" xmlns="http://www.w3.org/2000/svg">
<path d="M3.33191 1.99573H6.33191V0.995728H3.33191V1.99573Z" fill="#565656"/>
<path d="M12.6855 9.34931C13.3414 8.69334 14.2378 8.34792 15.0068 8.17045C15.3864 8.08284 15.7228 8.03897 15.9631 8.01712C16.083 8.00622 16.1782 8.00086 16.2421 7.99824C16.274 7.99693 16.298 7.9963 16.3133 7.996L16.3295 7.99575L16.3322 7.99573C16.3321 7.99573 16.3319 7.99573 16.3319 7.49573C16.3319 6.99573 16.3317 6.99573 16.3316 6.99573L16.3303 6.99573L16.3277 6.99574L16.3199 6.9958L16.2937 6.99619C16.2716 6.99662 16.2404 6.99746 16.201 6.99908C16.1223 7.00232 16.0105 7.00869 15.8726 7.02123C15.5973 7.04626 15.2149 7.09615 14.782 7.19606C13.926 7.3936 12.8224 7.79819 11.9784 8.6422C11.1343 9.48621 10.7297 10.5898 10.5322 11.4458C10.4323 11.8787 10.3824 12.2612 10.3574 12.5364C10.3449 12.6743 10.3385 12.7861 10.3353 12.8649C10.3336 12.9043 10.3328 12.9354 10.3324 12.9575L10.332 12.9837L10.3319 12.9916L10.3319 12.9941L10.3319 12.9954C10.3319 12.9956 10.3319 12.9958 10.8319 12.9958C11.3319 12.9958 11.3319 12.9959 11.3319 12.996L11.3319 12.9933L11.3322 12.9771C11.3325 12.9618 11.3331 12.9378 11.3344 12.9059C11.337 12.8421 11.3424 12.7469 11.3533 12.627C11.3751 12.3866 11.419 12.0503 11.5066 11.6707C11.6841 10.9017 12.0295 10.0053 12.6855 9.34931Z" fill="#565656"/>
<path fill-rule="evenodd" clip-rule="evenodd" d="M27.3313 14.0207C27.6356 7.93348 22.3942 2.69202 16.3069 2.99638C10.5083 3.28631 6.04259 8.22208 6.33253 14.0207C6.60736 19.5174 10.8103 23.7203 16.3069 23.9951C22.1056 24.2851 27.0413 19.8194 27.3313 14.0207ZM16.3569 3.99513C21.8531 3.72032 26.6073 8.47452 26.3325 13.9708C26.0702 19.2178 21.6039 23.2587 16.3569 22.9964C11.3732 22.7472 7.58046 18.9544 7.33128 13.9708C7.06893 8.72374 11.1098 4.25748 16.3569 3.99513Z" fill="#565656"/>
<path d="M27.3319 5.99573H31.3319V22.9957H27.3319V23.9957H32.3319V4.99573H27.3319V5.99573Z" fill="#565656"/>
<path d="M0.831909 4.99573H5.83191V5.99573H1.83191V22.9957H5.83191V23.9957H0.831909V4.99573Z" fill="#565656"/>
</svg>
