<svg width="32" height="26" viewBox="0 0 32 26" fill="none" xmlns="http://www.w3.org/2000/svg">
<path d="M1.27252 1.00208H30.2725V24.0021H23.7725V25.0021H31.2725V0.0020752H0.772522V0.502075H0.272522V25.0021H7.77252V24.0021H1.27252V1.00208Z" fill="#565656"/>
<path fill-rule="evenodd" clip-rule="evenodd" d="M6.27252 8.50208C6.27252 6.01679 8.28724 4.00208 10.7725 4.00208C13.2578 4.00208 15.2725 6.01679 15.2725 8.50208C15.2725 10.9874 13.2578 13.0021 10.7725 13.0021C8.28724 13.0021 6.27252 10.9874 6.27252 8.50208ZM10.7725 5.00208C8.83953 5.00208 7.27252 6.56908 7.27252 8.50208C7.27252 10.4351 8.83953 12.0021 10.7725 12.0021C12.7055 12.0021 14.2725 10.4351 14.2725 8.50208C14.2725 6.56908 12.7055 5.00208 10.7725 5.00208Z" fill="#565656"/>
<path d="M13.2725 14.5023C13.2725 14.5023 13.2725 14.5021 13.7725 14.5021C14.2725 14.5021 14.2725 14.5018 14.2725 14.5018L14.2726 14.505L14.2732 14.5272C14.2739 14.5479 14.2755 14.579 14.2786 14.6168C14.2851 14.6947 14.2976 14.7909 14.3201 14.8808C14.3336 14.9347 14.3477 14.9745 14.3598 15.0021H15.7725C15.9614 15.0021 16.0905 15.0987 16.154 15.1619C16.2168 15.2244 16.2547 15.2909 16.2757 15.3325C16.319 15.418 16.3477 15.5135 16.368 15.5929C16.4107 15.7596 16.4467 15.979 16.4781 16.2183C16.5417 16.7029 16.5953 17.3404 16.6384 17.9678C16.6817 18.5975 16.7152 19.2262 16.7377 19.6969C16.749 19.9324 16.7576 20.1287 16.7634 20.2662L16.7699 20.4261L16.7721 20.4823L16.2725 20.5021L15.7729 20.5208L15.7707 20.4657L15.7643 20.3082C15.7586 20.1723 15.7501 19.978 15.7389 19.7448C15.7165 19.278 15.6834 18.6567 15.6408 18.0364C15.598 17.4137 15.546 16.8013 15.4866 16.3484C15.4687 16.2119 15.4509 16.096 15.4336 16.0021H14.2725C13.9511 16.0021 13.722 15.8306 13.5835 15.6458C13.4555 15.4752 13.3882 15.2764 13.35 15.1233C13.3099 14.9632 13.2912 14.8094 13.2821 14.6998C13.2774 14.6439 13.275 14.5969 13.2738 14.5629C13.2732 14.5458 13.2729 14.5319 13.2727 14.5216L13.2726 14.509L13.2725 14.5048L13.2725 14.5023Z" fill="#565656"/>
<path d="M7.31626 14.2976C7.31626 14.2976 7.31617 14.2978 7.77252 14.5021C8.22887 14.7064 8.22878 14.7066 8.22878 14.7066L8.2278 14.7088L8.22605 14.7126L8.22054 14.7245C8.216 14.7343 8.20969 14.7476 8.2017 14.764C8.18576 14.7967 8.16295 14.8421 8.13393 14.8958C8.07652 15.0022 7.9918 15.1472 7.88465 15.2953C7.7795 15.4405 7.64039 15.606 7.47017 15.7394C7.30219 15.871 7.06409 16.0021 6.77252 16.0021H5.5544C5.52934 16.1086 5.50313 16.2512 5.47887 16.429C5.41171 16.9215 5.3656 17.5907 5.33451 18.2748C5.30357 18.9554 5.28805 19.6375 5.28028 20.1503C5.2764 20.4064 5.27446 20.6198 5.27349 20.769C5.273 20.8436 5.27276 20.9021 5.27264 20.9418L5.27254 20.987L5.27252 21.0013L4.77252 21.0021C4.27252 21.0021 4.27252 21.002 4.27252 21.002L4.27254 20.9856L4.27265 20.9388C4.27277 20.898 4.27302 20.8383 4.27351 20.7625C4.27449 20.6109 4.27646 20.3946 4.28039 20.1351C4.28825 19.6167 4.30398 18.9237 4.33554 18.2294C4.36695 17.5384 4.41458 16.8326 4.48804 16.2939C4.52423 16.0285 4.56978 15.7793 4.63102 15.5868C4.66056 15.494 4.70373 15.3814 4.7714 15.2822C4.82962 15.1968 4.98967 15.0021 5.27252 15.0021H6.76893C6.77377 15.0009 6.80114 14.9932 6.85337 14.9523C6.92243 14.8982 6.99879 14.8136 7.0746 14.7089C7.14842 14.6069 7.21015 14.502 7.25394 14.4208C7.27552 14.3808 7.29201 14.348 7.30271 14.3261L7.31417 14.3021L7.31626 14.2976Z" fill="#565656"/>
<path d="M20.2725 19.0021H27.2725V18.0021H20.2725V19.0021Z" fill="#565656"/>
<path d="M27.2725 15.0021H20.2725V14.0021H27.2725V15.0021Z" fill="#565656"/>
<path d="M20.2725 11.0021H27.2725V10.0021H20.2725V11.0021Z" fill="#565656"/>
<path d="M23.2725 7.00208H20.2725V6.00208H23.2725V7.00208Z" fill="#565656"/>
<path d="M11.7725 24.0021V25.0021H19.7725V24.0021H11.7725Z" fill="#565656"/>
</svg>
