<svg width="32" height="32" viewBox="0 0 32 32" fill="none" xmlns="http://www.w3.org/2000/svg">
<path d="M1.82311 15.0188C2.08595 7.13811 8.45218 0.868826 16.3149 1.00209C19.8298 1.06167 22.9912 2.36314 25.4182 4.4932L26.1268 3.78455C23.5243 1.47944 20.1219 0.0664739 16.3319 0.00223635C7.90219 -0.140639 1.10399 6.58054 0.823664 14.9855C0.533711 23.6793 7.61284 31.1497 16.3318 31.0021C24.9095 30.8569 31.6082 23.5382 31.3231 14.9855C31.1979 11.2299 29.7998 7.82084 27.5334 5.20644L26.8245 5.91531C28.9165 8.35214 30.2071 11.5214 30.3237 15.0188C30.5909 23.0347 24.3126 29.8668 16.3149 30.0022C8.1894 30.1398 1.5515 23.1627 1.82311 15.0188Z" fill="#565656"/>
<path d="M15.3234 7.0022V4.0022H16.3234V7.0022H15.3234Z" fill="#565656"/>
<path d="M24.1769 7.85575L16.1769 15.8558L15.4698 15.1486L23.4698 7.14864L24.1769 7.85575Z" fill="#565656"/>
<path d="M11.3234 25.0029C11.3234 25.0026 11.3234 25.0022 10.8234 25.0022C10.3234 25.0022 10.3234 25.0018 10.3234 25.0014L10.3234 24.9985L10.3235 24.9934L10.3237 24.9795C10.324 24.9685 10.3245 24.9542 10.3254 24.9367C10.3272 24.9019 10.3307 24.8544 10.3373 24.796C10.3503 24.6796 10.3758 24.5189 10.4256 24.3286C10.5252 23.9484 10.7234 23.4451 11.1177 22.9433C11.9222 21.9194 13.4599 21.0022 16.3234 21.0022C18.9662 21.0022 20.3827 21.9318 21.1153 22.9626C21.4723 23.4649 21.6485 23.9663 21.7358 24.3423C21.7796 24.5307 21.8014 24.6896 21.8124 24.8043C21.8179 24.8618 21.8206 24.9085 21.822 24.9426C21.8227 24.9596 21.8231 24.9736 21.8232 24.9842L21.8234 24.9976L21.8234 25.0023L21.8234 25.0042C21.8234 25.0046 21.8234 25.0058 21.3234 25.0022C20.8234 24.9987 20.8234 24.999 20.8234 24.9993L20.8234 25.0009L20.8229 24.9833C20.8222 24.9661 20.8206 24.9376 20.8169 24.8993C20.8096 24.8227 20.7942 24.7081 20.7617 24.5684C20.6967 24.2882 20.5651 23.9146 20.3002 23.5419C19.789 22.8226 18.7055 22.0022 16.3234 22.0022C13.6869 22.0022 12.4746 22.835 11.904 23.5611C11.6109 23.9343 11.4653 24.306 11.393 24.582C11.3569 24.7199 11.3394 24.8326 11.331 24.9076C11.3268 24.945 11.3249 24.9727 11.324 24.989L11.3234 25.0048L11.3234 25.0029Z" fill="#565656"/>
<path d="M24.3234 16.0022H27.3234V15.0022H24.3234V16.0022Z" fill="#565656"/>
<path d="M7.51104 7.89263L10.011 9.89263L10.6357 9.11176L8.13573 7.11176L7.51104 7.89263Z" fill="#565656"/>
<path d="M4.32339 16.0022H7.82339V15.0022H4.32339V16.0022Z" fill="#565656"/>
</svg>
