<svg width="31" height="25" viewBox="0 0 31 25" fill="none" xmlns="http://www.w3.org/2000/svg">
<path d="M10.807 11.0108C10.807 11.0106 10.807 11.0104 10.3071 11.0021C9.80716 10.9937 9.80717 10.9935 9.80717 10.9931L9.80723 10.99L9.8074 10.9826L9.80814 10.9571C9.80884 10.9355 9.81002 10.9046 9.81198 10.8651C9.81589 10.786 9.82289 10.6724 9.83535 10.5291C9.86025 10.2426 9.90703 9.83662 9.99477 9.35072C10.1698 8.38124 10.5102 7.0813 11.174 5.7755C11.8386 4.46804 12.8328 3.14481 14.3178 2.14927C15.8064 1.15132 17.7595 0.502075 20.3071 0.502075C22.8439 0.502075 25.5201 1.5846 27.5318 3.35925C29.5475 5.13733 30.9373 7.64958 30.8066 10.5248C30.5485 16.2029 27.9459 18.9896 25.3478 20.322C24.0659 20.9794 22.8052 21.2732 21.8682 21.4036C21.3987 21.4689 21.0074 21.4936 20.7312 21.5019C20.5931 21.506 20.4834 21.506 20.4069 21.505C20.3686 21.5044 20.3386 21.5036 20.3174 21.5029L20.2923 21.5019L20.2848 21.5016L20.2824 21.5015C20.282 21.5014 20.2808 21.5014 20.3071 21.0021C20.3334 20.5028 20.3331 20.5028 20.3329 20.5027L20.3357 20.5029L20.3513 20.5035C20.3661 20.504 20.3895 20.5046 20.4209 20.5051C20.4838 20.5059 20.5787 20.506 20.7013 20.5023C20.9466 20.4949 21.3015 20.4728 21.7304 20.4131C22.5902 20.2935 23.7358 20.0248 24.8914 19.4322C27.1683 18.2645 29.5657 15.8013 29.8076 10.4794C29.9215 7.97358 28.7143 5.73584 26.8703 4.10916C25.0224 2.47905 22.5763 1.50208 20.3071 1.50208C17.9381 1.50208 16.1829 2.10283 14.8747 2.97988C13.5628 3.85934 12.6716 5.03611 12.0654 6.22865C11.4583 7.42285 11.1424 8.62291 10.9789 9.52843C10.8973 9.98003 10.8542 10.3553 10.8316 10.6157C10.8203 10.7458 10.8141 10.847 10.8108 10.9145C10.8091 10.9482 10.8081 10.9735 10.8076 10.9897L10.8071 11.0071L10.807 11.0108Z" fill="#565656"/>
<path d="M16.6071 6.90208C17.4475 6.27177 18.382 5.91898 19.1163 5.72451C19.4816 5.62776 19.7925 5.57149 20.0101 5.53957C20.1188 5.52363 20.2038 5.51382 20.2602 5.50809C20.2885 5.50522 20.3095 5.50338 20.3228 5.5023L20.3367 5.50122L20.3388 5.50107C20.3387 5.50108 20.3385 5.50109 20.3071 5.00208C20.2756 4.50307 20.2755 4.50307 20.2753 4.50308L20.2741 4.50316L20.2718 4.50332L20.2648 4.50381L20.2415 4.50561C20.2219 4.50721 20.1942 4.50965 20.1592 4.51321C20.0892 4.52032 19.9894 4.53191 19.865 4.55016C19.6164 4.58662 19.2679 4.64989 18.8603 4.75784C18.0487 4.97277 16.9832 5.36998 16.0071 6.10208C14.8797 6.94758 14.3378 8.19632 14.074 9.18574C13.9407 9.68562 13.8742 10.1344 13.841 10.4589C13.8243 10.6215 13.8158 10.754 13.8115 10.8473C13.8094 10.894 13.8083 10.9309 13.8077 10.9571L13.8072 10.9881L13.8071 10.9973L13.8071 11.0002L13.8071 11.0013C13.8071 11.0015 13.8071 11.0021 14.3071 11.0021C14.8071 11.0021 14.8071 11.0022 14.8071 11.0024L14.8071 10.9988L14.8075 10.9789C14.8079 10.9604 14.8087 10.9315 14.8105 10.8932C14.814 10.8166 14.8212 10.703 14.8357 10.5609C14.865 10.276 14.9235 9.88103 15.0402 9.44341C15.2764 8.55783 15.7344 7.55657 16.6071 6.90208Z" fill="#565656"/>
<path d="M15.3071 16.5416L18.2756 18.9164L17.3386 20.0877L16.3071 19.2625V24.5021H14.3071V19.2625L13.2756 20.0877L12.3386 18.9164L15.3071 16.5416Z" fill="#565656"/>
<path d="M1.30563 14.0404C1.54264 10.9592 2.94587 9.48168 4.24062 8.74986C4.90103 8.37658 5.55003 8.18861 6.03514 8.09448C6.27696 8.04756 6.47573 8.02442 6.61158 8.01302C6.67943 8.00733 6.73135 8.00459 6.76483 8.00328C6.78156 8.00262 6.79366 8.00232 6.80082 8.00218L6.80761 8.00207C6.80736 8.00208 6.80709 8.00208 6.80709 7.50208C6.80709 7.00208 6.80678 7.00208 6.80645 7.00208L6.80377 7.00208L6.79842 7.00212L6.78179 7.00236C6.7681 7.00262 6.74925 7.00312 6.72558 7.00405C6.67825 7.00591 6.61152 7.00952 6.528 7.01652C6.36112 7.03052 6.12629 7.05815 5.84467 7.11279C5.28291 7.22179 4.52566 7.44007 3.74857 7.87929C2.16832 8.77248 0.571548 10.545 0.308572 13.9637C0.14534 16.0858 0.690963 17.6615 1.64664 18.8073C2.59211 19.9409 3.89862 20.6056 5.17985 20.9949C6.46297 21.3848 7.75612 21.5095 8.72073 21.5385C9.20484 21.5531 9.61052 21.5437 9.89655 21.5305C10.0397 21.5239 10.1531 21.5163 10.2317 21.5103C10.271 21.5073 10.3016 21.5047 10.3229 21.5028L10.3477 21.5005L10.3548 21.4998L10.3569 21.4996C10.3572 21.4996 10.3581 21.4995 10.3071 21.0021C10.256 20.5047 10.2562 20.5047 10.2563 20.5047L10.2518 20.5051L10.2333 20.5068C10.2163 20.5083 10.1902 20.5106 10.1556 20.5132C10.0862 20.5185 9.98287 20.5254 9.85051 20.5315C9.5856 20.5437 9.20563 20.5526 8.7508 20.539C7.83754 20.5115 6.63976 20.3934 5.47059 20.0381C4.29952 19.6823 3.19239 19.0994 2.41458 18.1668C1.64698 17.2465 1.15969 15.9376 1.30563 14.0404Z" fill="#565656"/>
</svg>
