<svg width="32" height="32" viewBox="0 0 32 32" fill="none" xmlns="http://www.w3.org/2000/svg">
<path d="M5.13627 20.5021V21.5021H2.13627C1.63628 21.5021 0.636274 30.502 1.13627 30.5021C1.63626 30.5022 21.6363 30.5022 22.6363 30.5021C23.6363 30.502 22.6363 21.6935 22.1363 21.5021C21.6363 21.3106 19.1363 21.5021 19.1363 21.5021V20.5021M24.1363 5.0022C24.1363 5.0022 29.1363 4.5022 29.1363 10.5022C29.1363 16.5022 24.1363 16.5022 24.1363 16.5022M27.1363 20.5022C27.1363 20.5022 29.6363 20.5022 30.1363 21.5022C30.6363 22.5022 31.6363 28.5022 31.1363 28.5022H26.6363M12.1363 0.502197C16.5545 0.502197 20.1363 4.08392 20.1363 8.5022C20.1363 12.9205 16.5545 16.5022 12.1363 16.5022C7.71798 16.5022 4.13626 12.9205 4.13626 8.5022C4.13626 4.08392 7.71798 0.502197 12.1363 0.502197Z" stroke="#565656"/>
</svg>
