<svg width="32" height="31" viewBox="0 0 32 31" fill="none" xmlns="http://www.w3.org/2000/svg">
<path d="M30.0468 1.14893H16.5468V0.148926H31.0468V14.6489H30.0468V1.14893Z" fill="#565656"/>
<path d="M1.76167 15.6695L14.3859 4.01633L13.7076 3.28152L0.331909 15.6284L15.0337 30.8552L28.3933 18.0093L27.7002 17.2885L15.0599 29.4427L1.76167 15.6695Z" fill="#565656"/>
<path fill-rule="evenodd" clip-rule="evenodd" d="M24.3847 6.78038C22.6102 5.15377 19.9834 5.15377 18.2089 6.78038C16.2655 8.56187 16.2655 11.736 18.2089 13.5175C19.9704 15.1322 22.6931 15.2097 24.4003 13.5025C25.252 12.6509 25.7256 11.4193 25.7569 10.193C25.7882 8.96225 25.3742 7.68745 24.3847 6.78038ZM18.8847 7.51754C20.2768 6.24139 22.3168 6.24139 23.7089 7.51754C24.4467 8.19378 24.7826 9.169 24.7572 10.1675C24.7316 11.1703 24.3416 12.147 23.6932 12.7954C22.4004 14.0882 20.2899 14.0685 18.8847 12.7804C17.3736 11.3952 17.3736 8.90269 18.8847 7.51754Z" fill="#565656"/>
</svg>
