<svg width="32" height="31" viewBox="0 0 32 31" fill="none" xmlns="http://www.w3.org/2000/svg">
<path fill-rule="evenodd" clip-rule="evenodd" d="M26.7467 1.00323C29.2828 0.83416 31.2799 3.04897 31.2799 5.50212C31.2799 7.95528 29.2828 10.1701 26.7467 10.001C24.3716 9.84268 22.7799 7.79748 22.7799 5.50212C22.7799 3.20677 24.3716 1.16157 26.7467 1.00323ZM30.2799 5.50212C30.2799 3.537 28.6856 1.87619 26.8132 2.00102C25.0461 2.11882 23.7799 3.64615 23.7799 5.50212C23.7799 7.3581 25.0461 8.88543 26.8132 9.00323C28.6856 9.12806 30.2799 7.46725 30.2799 5.50212Z" fill="#565656"/>
<path fill-rule="evenodd" clip-rule="evenodd" d="M0.280803 15.4728C0.423819 13.0415 2.26929 11.0021 4.77994 11.0021C7.29059 11.0021 9.13606 13.0415 9.27908 15.4728C9.43171 18.0675 7.45714 20.5021 4.77994 20.5021C2.10274 20.5021 0.12817 18.0675 0.280803 15.4728ZM4.77994 12.0021C2.87231 12.0021 1.39551 13.5521 1.27908 15.5315C1.15557 17.6312 2.7546 19.5021 4.77994 19.5021C6.80528 19.5021 8.40431 17.6312 8.2808 15.5315C8.16437 13.5521 6.68757 12.0021 4.77994 12.0021Z" fill="#565656"/>
<path fill-rule="evenodd" clip-rule="evenodd" d="M26.7467 21.0032C29.2828 20.8342 31.2799 23.049 31.2799 25.5021C31.2799 27.9553 29.2828 30.1701 26.7467 30.001C24.3716 29.8427 22.7799 27.7975 22.7799 25.5021C22.7799 23.2068 24.3716 21.1616 26.7467 21.0032ZM30.2799 25.5021C30.2799 23.537 28.6856 21.8762 26.8132 22.001C25.0461 22.1188 23.7799 23.6461 23.7799 25.5021C23.7799 27.3581 25.0461 28.8854 26.8132 29.0032C28.6856 29.1281 30.2799 27.4672 30.2799 25.5021Z" fill="#565656"/>
<path d="M19.0319 22.9362L12.0319 18.9362L12.528 18.068L19.528 22.068L19.0319 22.9362Z" fill="#565656"/>
<path d="M12.5152 13.4433L20.0152 9.44326L19.5446 8.56091L12.0446 12.5609L12.5152 13.4433Z" fill="#565656"/>
</svg>
