<svg width="76" height="64" viewBox="0 0 76 64" fill="none" xmlns="http://www.w3.org/2000/svg">
<path fill-rule="evenodd" clip-rule="evenodd" d="M22 3C22 1.34314 23.3431 0 25 0H51C52.6569 0 54 1.34314 54 3V10H58C58.3401 10 58.6734 10 59 10.0002V63.9998C58.6734 64 58.3401 64 58 64H18C17.6599 64 17.3266 64 17 63.9998V10.0002C17.3266 10 17.6599 10 18 10H22V3ZM49 5H27V11H49V5ZM28.4754 53.1953C27.3947 53.1953 26.4734 53 25.7117 52.6094C24.95 52.2122 24.3706 51.6003 23.9734 50.7734C23.5763 49.9466 23.3777 48.8887 23.3777 47.5996C23.3777 46.265 23.6023 45.1777 24.0516 44.3379C24.5073 43.4915 25.1355 42.8698 25.9363 42.4727C26.7436 42.0755 27.6779 41.877 28.7391 41.877C29.4943 41.877 30.1453 41.9518 30.6922 42.1016C31.2456 42.2448 31.7273 42.4173 32.1375 42.6191L31.2586 44.9238C30.7898 44.735 30.3536 44.582 29.95 44.4648C29.5464 44.3411 29.1427 44.2793 28.7391 44.2793C28.2182 44.2793 27.7853 44.403 27.4402 44.6504C27.0952 44.8913 26.838 45.2559 26.6687 45.7441C26.4995 46.2324 26.4148 46.8444 26.4148 47.5801C26.4148 48.3027 26.506 48.9017 26.6883 49.377C26.8706 49.8522 27.1342 50.207 27.4793 50.4414C27.8243 50.6693 28.2443 50.7832 28.7391 50.7832C29.3576 50.7832 29.9077 50.7018 30.3895 50.5391C30.8712 50.3698 31.34 50.1354 31.7957 49.8359V52.3848C31.34 52.6712 30.8615 52.8763 30.3602 53C29.8654 53.1302 29.2371 53.1953 28.4754 53.1953ZM46.257 41.877C47.494 41.877 48.4283 42.196 49.0598 42.834C49.6978 43.4655 50.0168 44.4811 50.0168 45.8809V53H47.0285V46.623C47.0285 45.8418 46.8951 45.2526 46.6281 44.8555C46.3612 44.4583 45.9478 44.2598 45.3879 44.2598C44.6001 44.2598 44.0402 44.543 43.7082 45.1094C43.3762 45.6693 43.2102 46.4733 43.2102 47.5215V53H40.2316V46.623C40.2316 46.1022 40.173 45.666 40.0559 45.3145C39.9387 44.9629 39.7596 44.6992 39.5188 44.5234C39.2779 44.3477 38.9686 44.2598 38.591 44.2598C38.0376 44.2598 37.6014 44.3997 37.2824 44.6797C36.9699 44.9531 36.7453 45.36 36.6086 45.9004C36.4784 46.4343 36.4133 47.0886 36.4133 47.8633V53H33.4348V42.082H35.7102L36.1105 43.4785H36.2766C36.4979 43.1009 36.7746 42.7949 37.1066 42.5605C37.4452 42.3262 37.8163 42.1536 38.2199 42.043C38.6236 41.9323 39.0337 41.877 39.4504 41.877C40.2512 41.877 40.9283 42.0071 41.4816 42.2676C42.0415 42.528 42.4712 42.9316 42.7707 43.4785H43.0344C43.3599 42.9186 43.8189 42.5117 44.4113 42.2578C45.0103 42.0039 45.6255 41.877 46.257 41.877ZM24.5762 36H27.5938V21.7227H25.1133L20.5137 25.3848L21.9688 27.2012L23.6094 25.8828C23.7982 25.72 24 25.5378 24.2148 25.3359C24.4362 25.1276 24.5827 24.9811 24.6543 24.8965C24.6413 25.1829 24.6283 25.5052 24.6152 25.8633C24.6022 26.2148 24.5924 26.5599 24.5859 26.8984C24.5794 27.2305 24.5762 27.5104 24.5762 27.7383V36ZM37.5215 36H40.5391V21.7227H38.0586L33.459 25.3848L34.9141 27.2012L36.5547 25.8828C36.7435 25.72 36.9453 25.5378 37.1602 25.3359C37.3815 25.1276 37.528 24.9811 37.5996 24.8965C37.5866 25.1829 37.5736 25.5052 37.5605 25.8633C37.5475 26.2148 37.5378 26.5599 37.5312 26.8984C37.5247 27.2305 37.5215 27.5104 37.5215 27.7383V36ZM53.543 27.377C52.8659 27.0449 52.0911 26.8789 51.2188 26.8789C50.75 26.8789 50.3854 26.9017 50.125 26.9473C49.8646 26.9929 49.6237 27.0384 49.4023 27.084L49.666 24.2812H54.7637V21.7227H47.0195L46.4824 28.998L47.6836 29.6426C47.9505 29.571 48.2826 29.4993 48.6797 29.4277C49.0833 29.3561 49.4707 29.3203 49.8418 29.3203C50.8119 29.3203 51.5312 29.5059 52 29.877C52.4688 30.248 52.7031 30.7819 52.7031 31.4785C52.7031 31.9993 52.5957 32.429 52.3809 32.7676C52.1725 33.0996 51.8633 33.347 51.4531 33.5098C51.043 33.666 50.5384 33.7441 49.9395 33.7441C49.3275 33.7441 48.6732 33.6562 47.9766 33.4805C47.2865 33.2982 46.694 33.0768 46.1992 32.8164V35.4238C46.694 35.6843 47.2702 35.8763 47.9277 36C48.5918 36.1302 49.2982 36.1953 50.0469 36.1953C51.3034 36.1953 52.3516 35.9968 53.1914 35.5996C54.0378 35.2025 54.6725 34.6328 55.0957 33.8906C55.5254 33.1419 55.7402 32.2532 55.7402 31.2246C55.7402 30.2806 55.5449 29.4863 55.1543 28.8418C54.7637 28.1973 54.2266 27.709 53.543 27.377Z" fill="#565656"/>
<path d="M64 63.948C68.6603 63.8076 71.44 63.2878 73.364 61.364C76 58.7279 76 54.4853 76 46V28C76 19.5147 76 15.2721 73.364 12.636C71.44 10.7122 68.6603 10.1924 64 10.052V63.948Z" fill="#565656"/>
<path d="M12 10.052V63.948C7.33966 63.8076 4.55995 63.2878 2.63604 61.364C0 58.7279 0 54.4853 0 46V28C0 19.5147 0 15.2721 2.63604 12.636C4.55995 10.7122 7.33966 10.1924 12 10.052Z" fill="#565656"/>
</svg>
