<svg width="76" height="64" viewBox="0 0 76 64" fill="none" xmlns="http://www.w3.org/2000/svg">
<path d="M49.2656 33.4805C48.901 33.1419 48.7188 32.7155 48.7188 32.2012C48.7188 31.8301 48.8066 31.498 48.9824 31.2051C49.1582 30.9121 49.3991 30.6484 49.7051 30.4141C50.0176 30.1797 50.3822 29.9681 50.7988 29.7793L51.0625 29.916C51.388 30.1048 51.7103 30.3099 52.0293 30.5312C52.3483 30.7461 52.612 30.9902 52.8203 31.2637C53.0352 31.5371 53.1426 31.8561 53.1426 32.2207C53.1426 32.748 52.957 33.1745 52.5859 33.5C52.2148 33.819 51.6549 33.9785 50.9062 33.9785C50.1836 33.9785 49.6367 33.8125 49.2656 33.4805Z" fill="#565656"/>
<path d="M49.6953 24.125C50.0208 23.8711 50.431 23.7441 50.9258 23.7441C51.4271 23.7441 51.8405 23.8711 52.166 24.125C52.498 24.3789 52.6641 24.737 52.6641 25.1992C52.6641 25.5443 52.5827 25.8405 52.4199 26.0879C52.2572 26.3353 52.0456 26.5469 51.7852 26.7227C51.5247 26.8984 51.2448 27.0579 50.9453 27.2012C50.6328 27.0449 50.3431 26.8757 50.0762 26.6934C49.8158 26.511 49.6042 26.2995 49.4414 26.0586C49.2852 25.8112 49.207 25.5247 49.207 25.1992C49.207 24.737 49.3698 24.3789 49.6953 24.125Z" fill="#565656"/>
<path fill-rule="evenodd" clip-rule="evenodd" d="M22 3C22 1.34314 23.3431 0 25 0H51C52.6569 0 54 1.34314 54 3V10H58C58.3401 10 58.6734 10 59 10.0002V63.9998C58.6734 64 58.3401 64 58 64H18C17.6599 64 17.3266 64 17 63.9998V10.0002C17.3266 10 17.6599 10 18 10H22V3ZM49 5H27V11H49V5ZM28.4754 53.1953C27.3947 53.1953 26.4734 53 25.7117 52.6094C24.95 52.2122 24.3706 51.6003 23.9734 50.7734C23.5763 49.9466 23.3777 48.8887 23.3777 47.5996C23.3777 46.265 23.6023 45.1777 24.0516 44.3379C24.5073 43.4915 25.1355 42.8698 25.9363 42.4727C26.7436 42.0755 27.6779 41.877 28.7391 41.877C29.4943 41.877 30.1453 41.9518 30.6922 42.1016C31.2456 42.2448 31.7273 42.4173 32.1375 42.6191L31.2586 44.9238C30.7898 44.735 30.3536 44.582 29.95 44.4648C29.5464 44.3411 29.1427 44.2793 28.7391 44.2793C28.2182 44.2793 27.7853 44.403 27.4402 44.6504C27.0952 44.8913 26.838 45.2559 26.6688 45.7441C26.4995 46.2324 26.4148 46.8444 26.4148 47.5801C26.4148 48.3027 26.506 48.9017 26.6883 49.377C26.8706 49.8522 27.1342 50.207 27.4793 50.4414C27.8243 50.6693 28.2443 50.7832 28.7391 50.7832C29.3576 50.7832 29.9077 50.7018 30.3895 50.5391C30.8712 50.3698 31.34 50.1354 31.7957 49.8359V52.3848C31.34 52.6712 30.8615 52.8763 30.3602 53C29.8654 53.1302 29.2371 53.1953 28.4754 53.1953ZM46.257 41.877C47.494 41.877 48.4283 42.196 49.0598 42.834C49.6978 43.4655 50.0168 44.4811 50.0168 45.8809V53H47.0285V46.623C47.0285 45.8418 46.8951 45.2526 46.6281 44.8555C46.3612 44.4583 45.9478 44.2598 45.3879 44.2598C44.6001 44.2598 44.0402 44.543 43.7082 45.1094C43.3762 45.6693 43.2102 46.4733 43.2102 47.5215V53H40.2316V46.623C40.2316 46.1022 40.173 45.666 40.0559 45.3145C39.9387 44.9629 39.7596 44.6992 39.5187 44.5234C39.2779 44.3477 38.9686 44.2598 38.591 44.2598C38.0376 44.2598 37.6014 44.3997 37.2824 44.6797C36.9699 44.9531 36.7453 45.36 36.6086 45.9004C36.4784 46.4343 36.4133 47.0886 36.4133 47.8633V53H33.4348V42.082H35.7102L36.1105 43.4785H36.2766C36.4979 43.1009 36.7746 42.7949 37.1066 42.5605C37.4452 42.3262 37.8163 42.1536 38.2199 42.043C38.6236 41.9323 39.0337 41.877 39.4504 41.877C40.2512 41.877 40.9283 42.0071 41.4816 42.2676C42.0415 42.528 42.4712 42.9316 42.7707 43.4785H43.0344C43.3599 42.9186 43.8189 42.5117 44.4113 42.2578C45.0103 42.0039 45.6255 41.877 46.257 41.877ZM24.5762 36H27.5938V21.7227H25.1133L20.5137 25.3848L21.9688 27.2012L23.6094 25.8828C23.7982 25.72 24 25.5378 24.2148 25.3359C24.4362 25.1276 24.5827 24.9811 24.6543 24.8965C24.6413 25.1829 24.6283 25.5052 24.6152 25.8633C24.6022 26.2148 24.5924 26.5599 24.5859 26.8984C24.5794 27.2305 24.5762 27.5104 24.5762 27.7383V36ZM37.5215 36H40.5391V21.7227H38.0586L33.459 25.3848L34.9141 27.2012L36.5547 25.8828C36.7435 25.72 36.9453 25.5378 37.1602 25.3359C37.3815 25.1276 37.528 24.9811 37.5996 24.8965C37.5866 25.1829 37.5736 25.5052 37.5605 25.8633C37.5475 26.2148 37.5378 26.5599 37.5312 26.8984C37.5247 27.2305 37.5215 27.5104 37.5215 27.7383V36ZM53.2109 21.918C52.5208 21.6641 51.7656 21.5371 50.9453 21.5371C50.138 21.5371 49.3861 21.6673 48.6895 21.9277C47.9928 22.1816 47.4297 22.5625 47 23.0703C46.5768 23.5781 46.3652 24.2097 46.3652 24.9648C46.3652 25.5312 46.4661 26.0325 46.668 26.4688C46.8763 26.905 47.153 27.2923 47.498 27.6309C47.8496 27.9694 48.237 28.2722 48.6602 28.5391C48.1589 28.7864 47.6999 29.0859 47.2832 29.4375C46.8665 29.7825 46.5345 30.196 46.2871 30.6777C46.0462 31.1595 45.9258 31.7259 45.9258 32.377C45.9258 33.1712 46.1211 33.8548 46.5117 34.4277C46.9023 34.9941 47.472 35.4304 48.2207 35.7363C48.9694 36.0423 49.8776 36.1953 50.9453 36.1953C51.9349 36.1953 52.804 36.0358 53.5527 35.7168C54.3014 35.3978 54.8874 34.9485 55.3105 34.3691C55.7337 33.7832 55.9453 33.0931 55.9453 32.2988C55.9453 31.6673 55.7988 31.114 55.5059 30.6387C55.2194 30.1634 54.8483 29.75 54.3926 29.3984C53.9368 29.0403 53.4551 28.7278 52.9473 28.4609C53.4355 28.22 53.8717 27.9401 54.2559 27.6211C54.64 27.2956 54.9427 26.918 55.1641 26.4883C55.3919 26.0586 55.5059 25.5573 55.5059 24.9844C55.5059 24.2161 55.2975 23.5781 54.8809 23.0703C54.4642 22.556 53.9076 22.1719 53.2109 21.918Z" fill="#565656"/>
<path d="M64 63.948C68.6603 63.8076 71.44 63.2878 73.364 61.364C76 58.7279 76 54.4853 76 46V28C76 19.5147 76 15.2721 73.364 12.636C71.44 10.7122 68.6603 10.1924 64 10.052V63.948Z" fill="#565656"/>
<path d="M12 10.052V63.948C7.33966 63.8076 4.55995 63.2878 2.63604 61.364C0 58.7279 0 54.4853 0 46V28C0 19.5147 0 15.2721 2.63604 12.636C4.55995 10.7122 7.33966 10.1924 12 10.052Z" fill="#565656"/>
</svg>
