<svg width="76" height="64" viewBox="0 0 76 64" fill="none" xmlns="http://www.w3.org/2000/svg">
<path fill-rule="evenodd" clip-rule="evenodd" d="M22 3C22 1.34314 23.3431 0 25 0H51C52.6569 0 54 1.34314 54 3V10L59 10.0002V63.9998C58.6734 64 58.3401 64 58 64H18C17.6599 64 17.3266 64 17 63.9998V10.0002C17.3266 10 17.6599 10 18 10H22V3ZM49 5H27V11H49V5ZM28.4754 53.1953C27.3947 53.1953 26.4734 53 25.7117 52.6094C24.95 52.2122 24.3706 51.6003 23.9734 50.7734C23.5763 49.9466 23.3777 48.8887 23.3777 47.5996C23.3777 46.265 23.6023 45.1777 24.0516 44.3379C24.5073 43.4915 25.1355 42.8698 25.9363 42.4727C26.7436 42.0755 27.6779 41.877 28.7391 41.877C29.4943 41.877 30.1453 41.9518 30.6922 42.1016C31.2456 42.2448 31.7273 42.4173 32.1375 42.6191L31.2586 44.9238C30.7898 44.735 30.3536 44.582 29.95 44.4648C29.5464 44.3411 29.1427 44.2793 28.7391 44.2793C28.2182 44.2793 27.7853 44.403 27.4402 44.6504C27.0952 44.8913 26.838 45.2559 26.6687 45.7441C26.4995 46.2324 26.4148 46.8444 26.4148 47.5801C26.4148 48.3027 26.506 48.9017 26.6883 49.377C26.8706 49.8522 27.1342 50.207 27.4793 50.4414C27.8243 50.6693 28.2443 50.7832 28.7391 50.7832C29.3575 50.7832 29.9077 50.7018 30.3895 50.5391C30.8712 50.3698 31.34 50.1354 31.7957 49.8359V52.3848C31.34 52.6712 30.8615 52.8763 30.3602 53C29.8654 53.1302 29.2371 53.1953 28.4754 53.1953ZM46.257 41.877C47.494 41.877 48.4283 42.196 49.0598 42.834C49.6978 43.4655 50.0168 44.4811 50.0168 45.8809V53H47.0285V46.623C47.0285 45.8418 46.8951 45.2526 46.6281 44.8555C46.3612 44.4583 45.9478 44.2598 45.3879 44.2598C44.6001 44.2598 44.0402 44.543 43.7082 45.1094C43.3762 45.6693 43.2102 46.4733 43.2102 47.5215V53H40.2316V46.623C40.2316 46.1022 40.173 45.666 40.0559 45.3145C39.9387 44.9629 39.7596 44.6992 39.5188 44.5234C39.2779 44.3477 38.9686 44.2598 38.591 44.2598C38.0376 44.2598 37.6014 44.3997 37.2824 44.6797C36.9699 44.9531 36.7453 45.36 36.6086 45.9004C36.4784 46.4343 36.4133 47.0886 36.4133 47.8633V53H33.4348V42.082H35.7102L36.1105 43.4785H36.2766C36.4979 43.1009 36.7746 42.7949 37.1066 42.5605C37.4452 42.3262 37.8163 42.1536 38.2199 42.043C38.6236 41.9323 39.0337 41.877 39.4504 41.877C40.2512 41.877 40.9283 42.0071 41.4816 42.2676C42.0415 42.528 42.4712 42.9316 42.7707 43.4785H43.0344C43.3599 42.9186 43.8189 42.5117 44.4113 42.2578C45.0103 42.0039 45.6255 41.877 46.257 41.877ZM24.5762 36H27.5938V21.7227H25.1133L20.5137 25.3848L21.9688 27.2012L23.6094 25.8828C23.7982 25.72 24 25.5378 24.2148 25.3359C24.4362 25.1276 24.5827 24.9811 24.6543 24.8965C24.6413 25.1829 24.6283 25.5052 24.6152 25.8633C24.6022 26.2148 24.5925 26.5599 24.5859 26.8984C24.5794 27.2305 24.5762 27.5104 24.5762 27.7383V36ZM33.0781 36H43.0586V33.4609H36.8379V33.3242L38.6738 31.5957C39.5137 30.821 40.2298 30.1146 40.8223 29.4766C41.4212 28.8386 41.877 28.194 42.1895 27.543C42.502 26.8919 42.6582 26.1725 42.6582 25.3848C42.6582 24.6491 42.4759 23.9915 42.1113 23.4121C41.7467 22.8262 41.2259 22.364 40.5488 22.0254C39.8783 21.6868 39.0742 21.5176 38.1367 21.5176C37.2839 21.5176 36.5514 21.6152 35.9395 21.8105C35.334 21.9993 34.8001 22.25 34.3379 22.5625C33.8822 22.875 33.4492 23.207 33.0391 23.5586L34.6797 25.502C35.2461 25.0332 35.7897 24.6719 36.3105 24.418C36.8314 24.1641 37.3685 24.0371 37.9219 24.0371C38.4492 24.0371 38.8691 24.1804 39.1816 24.4668C39.5007 24.7468 39.6602 25.1699 39.6602 25.7363C39.6602 26.2051 39.5592 26.6445 39.3574 27.0547C39.1621 27.4648 38.8431 27.9206 38.4004 28.4219C37.9642 28.9167 37.3848 29.5352 36.6621 30.2773L33.0781 33.9004V36ZM50.4668 36H53.4844V21.7227H51.0039L46.4043 25.3848L47.8594 27.2012L49.5 25.8828C49.6888 25.72 49.8906 25.5378 50.1055 25.3359C50.2469 25.2028 50.3578 25.095 50.4381 25.0124C50.4834 24.9657 50.5191 24.9271 50.5449 24.8965C50.5319 25.1829 50.5189 25.5052 50.5059 25.8633C50.4928 26.2148 50.4831 26.5599 50.4766 26.8984C50.47 27.2305 50.4668 27.5104 50.4668 27.7383V36Z" fill="#565656"/>
<path d="M64 63.948C68.6603 63.8076 71.44 63.2878 73.364 61.364C76 58.7279 76 54.4853 76 46V28C76 19.5147 76 15.2721 73.364 12.636C71.44 10.7122 68.6603 10.1924 64 10.052V63.948Z" fill="#565656"/>
<path d="M12 10.052V63.948C7.33966 63.8076 4.55995 63.2878 2.63603 61.364C0 58.7279 0 54.4853 0 46V28C0 19.5147 0 15.2721 2.63603 12.636C4.55995 10.7122 7.33966 10.1924 12 10.052Z" fill="#565656"/>
</svg>
