<svg width="76" height="64" viewBox="0 0 76 64" fill="none" xmlns="http://www.w3.org/2000/svg">
<path d="M52.5273 33.1777C52.1562 33.5814 51.6745 33.7832 51.082 33.7832C50.7305 33.7832 50.418 33.7018 50.1445 33.5391C49.8776 33.3763 49.653 33.1614 49.4707 32.8945C49.2884 32.6276 49.1517 32.3314 49.0605 32.0059C48.9694 31.6804 48.9238 31.3516 48.9238 31.0195C48.9238 30.7005 49.015 30.3913 49.1973 30.0918C49.3796 29.7858 49.6367 29.5352 49.9688 29.3398C50.3073 29.138 50.6979 29.0371 51.1406 29.0371C51.7917 29.0371 52.2767 29.239 52.5957 29.6426C52.9212 30.0397 53.084 30.5866 53.084 31.2832C53.084 32.1426 52.8984 32.7741 52.5273 33.1777Z" fill="#565656"/>
<path fill-rule="evenodd" clip-rule="evenodd" d="M22 3C22 1.34314 23.3431 0 25 0H51C52.6569 0 54 1.34314 54 3V10H58C58.3401 10 58.6734 10 59 10.0002V64C58.6734 64.0002 58.3401 64 58 64L17 63.9998V10.0002L22 10V3ZM49 5H27V11H49V5ZM28.4754 53.1953C27.3947 53.1953 26.4734 53 25.7117 52.6094C24.95 52.2123 24.3706 51.6002 23.9734 50.7734C23.5763 49.9467 23.3777 48.8887 23.3777 47.5996C23.3777 46.265 23.6024 45.1777 24.0516 44.3379C24.5073 43.4916 25.1356 42.8698 25.9363 42.4727C26.7436 42.0756 27.6779 41.877 28.7391 41.877C29.4943 41.877 30.1453 41.9518 30.6922 42.1016C31.2456 42.2448 31.7274 42.4174 32.1375 42.6191L31.2586 44.9238C30.7899 44.735 30.3536 44.582 29.95 44.4648C29.5464 44.3412 29.1427 44.2793 28.7391 44.2793C28.2182 44.2793 27.7853 44.403 27.4402 44.6504C27.0952 44.8912 26.838 45.2559 26.6688 45.7441C26.4995 46.2324 26.4149 46.8444 26.4149 47.5801C26.4149 48.3027 26.506 48.9017 26.6883 49.377C26.8706 49.8522 27.1342 50.207 27.4793 50.4414C27.8243 50.6693 28.2443 50.7832 28.7391 50.7832C29.3575 50.7832 29.9077 50.7018 30.3895 50.5391C30.8712 50.3698 31.34 50.1354 31.7957 49.8359V52.3848C31.34 52.6713 30.8615 52.8763 30.3602 53C29.8654 53.1302 29.2371 53.1953 28.4754 53.1953ZM46.257 41.877C47.494 41.877 48.4283 42.1959 49.0598 42.834C49.6978 43.4655 50.0168 44.4811 50.0168 45.8809V53H47.0285V46.623C47.0285 45.8418 46.8951 45.2526 46.6281 44.8555C46.3612 44.4584 45.9478 44.2598 45.3879 44.2598C44.6001 44.2598 44.0402 44.543 43.7082 45.1094C43.3762 45.6693 43.2102 46.4733 43.2102 47.5215V53H40.2316V46.623C40.2316 46.1022 40.173 45.666 40.0559 45.3145C39.9387 44.9629 39.7596 44.6992 39.5187 44.5234C39.2779 44.3477 38.9686 44.2598 38.591 44.2598C38.0376 44.2598 37.6014 44.3998 37.2824 44.6797C36.9699 44.9531 36.7453 45.36 36.6086 45.9004C36.4784 46.4342 36.4133 47.0885 36.4133 47.8633V53H33.4348V42.082H35.7101L36.1105 43.4785H36.2766C36.4979 43.101 36.7746 42.7949 37.1066 42.5605C37.4452 42.3262 37.8163 42.1537 38.2199 42.043C38.6236 41.9323 39.0337 41.877 39.4504 41.877C40.2512 41.877 40.9283 42.0072 41.4816 42.2676C42.0415 42.528 42.4712 42.9316 42.7707 43.4785H43.0344C43.3599 42.9186 43.8189 42.5117 44.4113 42.2578C45.0103 42.0039 45.6255 41.877 46.257 41.877ZM24.5762 36H27.5938V21.7227H25.1133L20.5137 25.3848L21.9688 27.2012L23.6094 25.8828C23.7982 25.72 24 25.5378 24.2148 25.3359C24.3478 25.2108 24.4538 25.1079 24.5327 25.0274C24.5852 24.9739 24.6257 24.9303 24.6543 24.8965C24.6413 25.1829 24.6283 25.5052 24.6152 25.8633C24.6022 26.2148 24.5924 26.5599 24.5859 26.8984C24.5794 27.2305 24.5762 27.5104 24.5762 27.7383V36ZM33.0781 36H43.0586V33.4609H36.8379V33.3242L38.6738 31.5957C39.5137 30.821 40.2298 30.1146 40.8223 29.4766C41.4212 28.8386 41.877 28.194 42.1895 27.543C42.502 26.8919 42.6582 26.1725 42.6582 25.3848C42.6582 24.6491 42.4759 23.9915 42.1113 23.4121C41.7467 22.8262 41.2259 22.364 40.5488 22.0254C39.8783 21.6868 39.0742 21.5176 38.1367 21.5176C37.2838 21.5176 36.5514 21.6152 35.9395 21.8105C35.334 21.9993 34.8001 22.25 34.3379 22.5625C33.8822 22.875 33.4492 23.207 33.0391 23.5586L34.6797 25.502C35.2461 25.0332 35.7897 24.6719 36.3105 24.418C36.8314 24.1641 37.3685 24.0371 37.9219 24.0371C38.4492 24.0371 38.8691 24.1804 39.1816 24.4668C39.5006 24.7468 39.6602 25.1699 39.6602 25.7363C39.6602 26.2051 39.5592 26.6445 39.3574 27.0547C39.1621 27.4648 38.8431 27.9206 38.4004 28.4219C37.9642 28.9167 37.3848 29.5352 36.6621 30.2773L33.0781 33.9004V36ZM46.1016 27.5039C45.9844 28.3047 45.9258 29.1152 45.9258 29.9355C45.9258 31.0098 46.0592 31.9407 46.3262 32.7285C46.5931 33.5098 46.9642 34.1575 47.4395 34.6719C47.9147 35.1862 48.4681 35.5703 49.0996 35.8242C49.7311 36.0716 50.4115 36.1953 51.1406 36.1953C52.1367 36.1953 52.9961 36 53.7188 35.6094C54.4479 35.2122 55.0111 34.6426 55.4082 33.9004C55.8053 33.1582 56.0039 32.2728 56.0039 31.2441C56.0039 30.2806 55.8379 29.4636 55.5059 28.793C55.1738 28.1224 54.7018 27.6113 54.0898 27.2598C53.4779 26.9017 52.7552 26.7227 51.9219 26.7227C51.388 26.7227 50.9225 26.7975 50.5254 26.9473C50.1283 27.0905 49.7897 27.2858 49.5098 27.5332C49.2363 27.7806 49.0085 28.0638 48.8262 28.3828H48.6992C48.7448 27.4974 48.8978 26.7227 49.1582 26.0586C49.4251 25.388 49.8809 24.864 50.5254 24.4863C51.1764 24.1087 52.0944 23.9199 53.2793 23.9199C53.5723 23.9199 53.8652 23.9395 54.1582 23.9785C54.4577 24.011 54.7376 24.0566 54.998 24.1152V21.7031C54.7507 21.6511 54.4382 21.6152 54.0605 21.5957C53.6895 21.5696 53.3639 21.5566 53.084 21.5566C51.8991 21.5566 50.89 21.7161 50.0566 22.0352C49.2233 22.3477 48.5365 22.7806 47.9961 23.334C47.4557 23.8809 47.0358 24.5124 46.7363 25.2285C46.4368 25.9382 46.2253 26.6966 46.1016 27.5039Z" fill="#565656"/>
<path d="M64 63.948C68.6603 63.8076 71.44 63.2878 73.364 61.364C76 58.7279 76 54.4853 76 46V28C76 19.5147 76 15.2721 73.364 12.636C71.44 10.7121 68.6603 10.1924 64 10.052V63.948Z" fill="#565656"/>
<path d="M12 10.052V63.948C7.33966 63.8076 4.55994 63.2878 2.63605 61.364C0 58.7279 0 54.4853 0 46V28C0 19.5147 0 15.2721 2.63605 12.636C4.55994 10.7121 7.33966 10.1924 12 10.052Z" fill="#565656"/>
</svg>
