<svg width="61" height="61" viewBox="0 0 61 61" fill="none" xmlns="http://www.w3.org/2000/svg">
<rect x="2" y="4" width="57" height="52" fill="white"/>
<path fill-rule="evenodd" clip-rule="evenodd" d="M1.46447 1.46447C0 2.92893 0 5.28595 0 10V51C0 55.714 0 58.0711 1.46447 59.5355C2.92893 61 5.28595 61 10 61H51C55.714 61 58.0711 61 59.5355 59.5355C61 58.0711 61 55.714 61 51V10C61 5.28595 61 2.92893 59.5355 1.46447C58.0711 0 55.714 0 51 0H10C5.28595 0 2.92893 0 1.46447 1.46447ZM8.22679 16.215C7.64996 16.3953 7.27625 16.6809 7.1076 17.0865C6.9638 17.4322 6.96675 17.8644 7.10077 18.3658C7.23402 18.8642 7.48477 19.3842 7.77247 19.8664C8.05848 20.3458 8.37041 20.7704 8.61213 21.0762C8.73259 21.2286 8.83464 21.3503 8.90593 21.4332C8.92589 21.4564 8.94342 21.4765 8.95825 21.4934L20.3772 27.4511L20.5746 27.5541L20.6301 27.7697L20.1459 27.8944C20.6301 27.7697 20.6301 27.7697 20.6302 27.7699L20.6303 27.7704L20.6309 27.7727L20.6333 27.7819L20.6426 27.8182L20.6792 27.9599L20.8187 28.4989C20.9392 28.9639 21.1121 29.6295 21.3215 30.4315C21.7404 32.0355 22.3054 34.185 22.8903 36.3673C23.4753 38.5502 24.0795 40.7637 24.5768 42.4966C24.8256 43.3635 25.0467 44.1067 25.2247 44.6645C25.3138 44.9437 25.3909 45.1725 25.4543 45.3452C25.486 45.4317 25.5131 45.5008 25.5356 45.5534C25.5418 45.5681 25.5475 45.5809 25.5525 45.592C25.5565 45.6008 25.5601 45.6084 25.5633 45.6151L25.5704 45.6293L25.574 45.636L25.5744 45.6367L25.5747 45.6372C26.2557 46.7722 27.4066 47.5843 28.4522 47.9909C28.975 48.1942 29.4398 48.2836 29.7773 48.2773C29.9458 48.2742 30.0601 48.2476 30.1288 48.2179C30.1616 48.2037 30.1795 48.1907 30.1881 48.1831C30.196 48.1761 30.198 48.1723 30.1987 48.1708C30.2387 48.0909 30.3355 47.8162 30.4836 47.3367C30.6255 46.8774 30.802 46.2723 31.0008 45.5706C31.3983 44.1679 31.8819 42.3893 32.3505 40.6401C32.8189 38.8912 33.2718 37.1734 33.6076 35.8926C33.7755 35.2523 33.9141 34.7213 34.0107 34.3504L34.1226 33.9205L34.1519 33.8076L34.1594 33.7787L34.1613 33.7714L34.1618 33.7695L34.1619 33.7691C34.1619 33.769 34.1619 33.7689 34.6459 33.8944L34.1619 33.7689L34.3282 33.1275L34.8994 33.4635L34.8996 33.4635L34.9005 33.4641L34.9047 33.4665L34.922 33.4767L34.9922 33.5173C35.0544 33.5531 35.1469 33.6059 35.267 33.6734C35.507 33.8084 35.857 34.0018 36.2945 34.2341C37.1699 34.6989 38.3935 35.3184 39.7865 35.9375C42.5361 37.1596 45.8672 38.3436 48.4788 38.3929C48.5172 38.3484 48.5661 38.2874 48.6258 38.2077C48.799 37.9769 49.0273 37.6379 49.2949 37.219C49.8284 36.384 50.4962 35.266 51.1515 34.1425C51.8062 33.0202 52.4456 31.8974 52.9215 31.0548C53.1594 30.6336 53.3564 30.2826 53.4938 30.037C53.5339 29.9654 53.5689 29.9027 53.5984 29.8499C53.618 29.8148 53.6351 29.784 53.6497 29.7579L53.6499 29.7488C53.6514 29.666 53.6525 29.5448 53.6503 29.3944C53.6459 29.0929 53.6285 28.6778 53.5772 28.2225C53.4709 27.2811 53.2307 26.2863 52.7593 25.7115C52.3167 25.1717 51.6816 25.0409 50.8302 25.2503C49.9633 25.4635 48.9755 26.0136 48.0195 26.6878C47.0719 27.356 46.1937 28.1186 45.5497 28.7174C45.2285 29.0161 44.9673 29.2723 44.7869 29.4535C44.6967 29.544 44.6268 29.6156 44.5798 29.6643C44.5563 29.6886 44.5385 29.7072 44.5268 29.7195L44.5138 29.7332L44.5108 29.7364L44.5101 29.737L44.5101 29.7371L44.51 29.7371L44.269 29.9934L43.9463 29.8529L12.9867 16.3705L12.9703 16.3666C12.9322 16.3577 12.8753 16.3448 12.8019 16.329C12.655 16.2973 12.4426 16.2544 12.1843 16.21C11.6659 16.1209 10.9703 16.0272 10.2503 16.0049C9.52427 15.9825 8.80601 16.034 8.22679 16.215ZM13.1459 15.8944L13.2666 15.4092L13.3072 15.4193L13.3456 15.436L44.0285 28.7979L44.0784 28.7477C44.2663 28.5591 44.5368 28.2937 44.8687 27.985C45.5312 27.3691 46.4456 26.5741 47.4432 25.8706C48.4323 25.173 49.5421 24.5372 50.5914 24.2792C51.6561 24.0174 52.7557 24.1301 53.5326 25.0774C54.2027 25.8946 54.4625 27.1498 54.5709 28.1104C54.6268 28.6061 54.6454 29.055 54.6502 29.3798C54.6525 29.5425 54.6514 29.6749 54.6497 29.7675C54.6488 29.8139 54.6478 29.8503 54.647 29.8756L54.6459 29.9051L54.6456 29.9134L54.6455 29.9159L54.6454 29.9167L54.6454 29.917C54.6454 29.9171 54.6454 29.9172 54.1459 29.8944L54.6454 29.9172L54.6401 30.0346L54.583 30.1373L54.563 30.1262C54.583 30.1373 54.583 30.1374 54.5829 30.1374L54.5828 30.1377L54.5821 30.139L54.5793 30.1439L54.5685 30.1634L54.5264 30.239C54.4895 30.3051 54.4354 30.402 54.3665 30.5253C54.2285 30.7719 54.0309 31.124 53.7922 31.5466C53.315 32.3915 52.6732 33.5187 52.0153 34.6464C51.3582 35.7728 50.6823 36.9049 50.1376 37.7574C49.8662 38.1823 49.6218 38.5464 49.4258 38.8077C49.3291 38.9367 49.2348 39.0533 49.1486 39.1419C49.1063 39.1854 49.0538 39.2349 48.994 39.2771C48.953 39.3061 48.8245 39.3944 48.6459 39.3944C45.7814 39.3944 42.1968 38.1031 39.3804 36.8513C37.9609 36.2205 36.7158 35.59 35.8255 35.1173C35.4835 34.9357 35.1935 34.7772 34.9659 34.6507C34.8698 35.0192 34.7358 35.5326 34.5749 36.1462C34.2388 37.428 33.7855 39.1476 33.3164 40.8988C32.8475 42.6495 32.3624 44.4335 31.9629 45.8432C31.7633 46.5478 31.5844 47.1615 31.4391 47.6318C31.3001 48.082 31.1782 48.4479 31.0931 48.618C30.8383 49.1277 30.269 49.2684 29.7958 49.2771C29.2896 49.2865 28.6919 49.1571 28.0897 48.9229C26.8852 48.4545 25.5362 47.5167 24.7172 46.1517C24.6498 46.0393 24.5811 45.8683 24.5155 45.6898C24.4451 45.4979 24.3632 45.254 24.2721 44.9685C24.0897 44.3969 23.8654 43.6428 23.6157 42.7725C23.1158 41.031 22.5098 38.8107 21.9244 36.6262C21.3388 34.4411 20.7731 32.2894 20.3539 30.6841C20.1443 29.8815 19.9713 29.2153 19.8507 28.7498L19.7174 28.2348L8.41465 22.3377L8.33691 22.2972L8.27761 22.2326L8.64593 21.8944C8.27761 22.2326 8.27752 22.2325 8.27743 22.2324L8.27718 22.2321L8.27649 22.2314L8.27435 22.229L8.26709 22.221L8.24118 22.1921C8.21903 22.1673 8.18738 22.1313 8.14781 22.0853C8.06872 21.9934 7.95774 21.861 7.8276 21.6963C7.56813 21.368 7.22864 20.9067 6.9137 20.3788C6.60045 19.8537 6.30073 19.2451 6.13469 18.624C5.96942 18.0058 5.92427 17.3276 6.18427 16.7024C6.50874 15.9223 7.1941 15.4901 7.92848 15.2605C8.66047 15.0318 9.50556 14.9815 10.2812 15.0054C11.0629 15.0296 11.8075 15.1306 12.3537 15.2245C12.6277 15.2716 12.8538 15.3172 13.0123 15.3513C13.0916 15.3684 13.154 15.3826 13.1972 15.3927L13.2473 15.4045L13.2609 15.4078L13.2648 15.4088L13.2659 15.4091L13.2663 15.4092C13.2665 15.4092 13.2666 15.4092 13.1459 15.8944ZM41.0247 16.3794C39.1703 15.9159 37.643 16.3156 35.6611 16.8975C34.1961 17.3276 32.605 17.8886 31.3763 18.3438C31.0265 18.4734 30.7066 18.5942 30.428 18.7006L39.7258 22.6739C39.7987 22.615 39.887 22.5423 39.9868 22.4573C40.2831 22.205 40.6774 21.8472 41.0716 21.4243C41.4673 20.9999 41.8536 20.5199 42.1418 20.0239C42.4322 19.5242 42.6046 19.04 42.6157 18.599C42.6291 18.0613 42.5196 17.5814 42.2772 17.2069C42.0411 16.8421 41.6532 16.5365 41.0247 16.3794ZM39.8009 23.2497L40.0984 23.6516L39.868 23.8221L39.6045 23.7095L28.9103 19.1395L27.8032 18.6665L28.9197 18.2161L29.1068 18.6798L28.9198 18.216L28.9199 18.216L28.9205 18.2157L28.9225 18.2149L28.9303 18.2118L28.9604 18.1997L29.0763 18.1535C29.1774 18.1134 29.3248 18.0552 29.5107 17.9827C29.8827 17.8378 30.4093 17.6356 31.029 17.406C32.2665 16.9476 33.8822 16.3776 35.3794 15.938C37.3537 15.3583 39.1216 14.8729 41.2672 15.4093C42.1182 15.622 42.7303 16.0665 43.1167 16.6635C43.4968 17.2509 43.6323 17.9445 43.6154 18.624C43.5986 19.2958 43.3428 19.9477 43.0064 20.5264C42.668 21.1087 42.2291 21.6492 41.8031 22.1062C41.3757 22.5646 40.9517 22.9491 40.6352 23.2186C40.4766 23.3537 40.3441 23.4607 40.2506 23.5344C40.2038 23.5713 40.1666 23.5999 40.1407 23.6197L40.1106 23.6425L40.1022 23.6488L40.0997 23.6506L40.0989 23.6512L40.0986 23.6514C40.0985 23.6515 40.0984 23.6516 39.8009 23.2497Z" fill="#019CDF"/>
</svg>
